{
  "accessors": [
    {
      "bufferView": 0,
      "componentType": 5126,
      "type": "VEC3",
      "count": 42,
      "min": [-16, -16, 2],
      "max": [48, 48, 3]
    },
    {
      "bufferView": 0,
      "componentType": 5126,
      "type": "VEC3",
      "byteOffset": 12,
      "count": 42
    },
    {
      "bufferView": 0,
      "componentType": 5126,
      "type": "VEC4",
      "byteOffset": 24,
      "count": 42
    },
    {
      "bufferView": 1,
      "componentType": 5125,
      "type": "SCALAR",
      "count": 90
    },
    {
      "bufferView": 2,
      "componentType": 5126,
      "type": "VEC3",
      "count": 3862,
      "min": [-14, -15, 3],
      "max": [46, 45, 10]
    },
    {
      "bufferView": 2,
      "componentType": 5126,
      "type": "VEC3",
      "byteOffset": 12,
      "count": 3862
    },
    {
      "bufferView": 2,
      "componentType": 5126,
      "type": "VEC4",
      "byteOffset": 24,
      "count": 3862
    },
    {
      "bufferView": 3,
      "componentType": 5125,
      "type": "SCALAR",
      "count": 7722
    }
  ],
  "asset": {
    "generator": "goxel",
    "version": "2.0"
  },
  "bufferViews": [
    {
      "buffer": 0,
      "byteLength": 1680,
      "byteStride": 40
    },
    {
      "buffer": 1,
      "byteLength": 360
    },
    {
      "buffer": 2,
      "byteLength": 154480,
      "byteStride": 40
    },
    {
      "buffer": 3,
      "byteLength": 30888
    }
  ],
  "buffers": [
    {
      "uri": "data:application/octet-stream;base64,",
      "byteLength": 1680
    },
    {
      "uri": "data:application/octet-stream;base64,",
      "byteLength": 360
    },
    {
      "uri": "data:application/octet-stream;base64,",
      "byteLength": 154480
    },
    {
      "uri": "data:application/octet-stream;base64,",
      "byteLength": 30888
    }
  ],
  "meshes": [
    {
      "primitives": [
        {
          "indices": 3,
          "material": 0,
          "attributes": {
            "POSITION": 0,
            "NORMAL": 1,
            "COLOR_0": 2
          }
        }
      ]
    },
    {
      "primitives": [
        {
          "indices": 7,
          "material": 0,
          "attributes": {
            "POSITION": 4,
            "NORMAL": 5,
            "COLOR_0": 6
          }
        }
      ]
    }
  ],
  "materials": [
    {
      "name": "flat",
      "pbrMetallicRoughness": {
        "metallicFactor": 0
      }
    }
  ],
  "nodes": [
    {
      "children": [ 1, 2 ],
      "matrix": [1, 0, 0, 0, 0, 0, -1, 0, 0, 1, 0, 0, 0, 0, 0, 1]
    },
    {
      "mesh": 0,
      "name": "ground"
    },
    {
      "mesh": 1,
      "name": "trees"
    }
  ],
  "scenes": [
    {
      "nodes": [ 0 ]
    }
  ]
}
