{
  "accessors": [
    {
      "bufferView": 0,
      "componentType": 5126,
      "type": "VEC3",
      "count": 8970,
      "min": [-32, -32, 2],
      "max": [32, 32, 3]
    },
    {
      "bufferView": 0,
      "componentType": 5126,
      "type": "VEC3",
      "byteOffset": 12,
      "count": 8970
    },
    {
      "bufferView": 0,
      "componentType": 5126,
      "type": "VEC4",
      "byteOffset": 24,
      "count": 8970
    },
    {
      "bufferView": 1,
      "componentType": 5125,
      "type": "SCALAR",
      "count": 50688
    },
    {
      "bufferView": 2,
      "componentType": 5126,
      "type": "VEC3",
      "count": 3871,
      "min": [-30, -31, 3],
      "max": [30, 29, 10]
    },
    {
      "bufferView": 2,
      "componentType": 5126,
      "type": "VEC3",
      "byteOffset": 12,
      "count": 3871
    },
    {
      "bufferView": 2,
      "componentType": 5126,
      "type": "VEC4",
      "byteOffset": 24,
      "count": 3871
    },
    {
      "bufferView": 3,
      "componentType": 5125,
      "type": "SCALAR",
      "count": 7752
    }
  ],
  "asset": {
    "generator": "goxel",
    "version": "2.0"
  },
  "bufferViews": [
    {
      "buffer": 0,
      "byteLength": 358800,
      "byteStride": 40
    },
    {
      "buffer": 1,
      "byteLength": 202752
    },
    {
      "buffer": 2,
      "byteLength": 154840,
      "byteStride": 40
    },
    {
      "buffer": 3,
      "byteLength": 31008
    }
  ],
  "buffers": [
    {
      "uri": "data:application/octet-stream;base64,",
      "byteLength": 358800
    },
    {
      "uri": "data:application/octet-stream;base64,",
      "byteLength": 202752
    },
    {
      "uri": "data:application/octet-stream;base64,",
      "byteLength": 154840
    },
    {
      "uri": "data:application/octet-stream;base64,",
      "byteLength": 31008
    }
  ],
  "meshes": [
    {
      "primitives": [
        {
          "indices": 3,
          "material": 0,
          "attributes": {
            "POSITION": 0,
            "NORMAL": 1,
            "COLOR_0": 2
          }
        }
      ]
    },
    {
      "primitives": [
        {
          "indices": 7,
          "material": 0,
          "attributes": {
            "POSITION": 4,
            "NORMAL": 5,
            "COLOR_0": 6
          }
        }
      ]
    }
  ],
  "materials": [
    {
      "name": "flat",
      "pbrMetallicRoughness": {
        "metallicFactor": 0
      }
    }
  ],
  "nodes": [
    {
      "children": [ 1, 2 ],
      "matrix": [1, 0, 0, 0, 0, 0, -1, 0, 0, 1, 0, 0, 0, 0, 0, 1]
    },
    {
      "mesh": 0,
      "name": "ground"
    },
    {
      "mesh": 1,
      "name": "trees"
    }
  ],
  "scenes": [
    {
      "nodes": [ 0 ]
    }
  ]
}
